<mxfile host="app.diagrams.net" modified="2023-05-19T15:54:03.300Z" agent="Mozilla/5.0 (Windows NT 10.0; Win64; x64) AppleWebKit/537.36 (KHTML, like Gecko) Chrome/113.0.0.0 Safari/537.36 Edg/113.0.1774.42" etag="pGImHL8Mu_sNTjdFYCkm" version="21.3.2" type="github">
  <diagram name="第 1 页" id="L1WevF3I_cQHLZeHNhZ9">
    <mxGraphModel dx="2037" dy="1066" grid="1" gridSize="10" guides="1" tooltips="1" connect="1" arrows="1" fold="1" page="1" pageScale="1" pageWidth="827" pageHeight="1169" math="0" shadow="0">
      <root>
        <mxCell id="0" />
        <mxCell id="1" parent="0" />
        <mxCell id="UBRUYtKY9HVl9Kvyujsa-1" value="实施与运营" style="whiteSpace=wrap;strokeWidth=2;verticalAlign=top;" vertex="1" parent="1">
          <mxGeometry x="40" y="965" width="151" height="336" as="geometry" />
        </mxCell>
        <mxCell id="UBRUYtKY9HVl9Kvyujsa-2" value="项目建设" style="whiteSpace=wrap;strokeWidth=2;" vertex="1" parent="1">
          <mxGeometry x="75" y="990" width="81" height="34" as="geometry" />
        </mxCell>
        <mxCell id="UBRUYtKY9HVl9Kvyujsa-3" value="项目销售" style="whiteSpace=wrap;strokeWidth=2;" vertex="1" parent="1">
          <mxGeometry x="76" y="1074" width="80" height="34" as="geometry" />
        </mxCell>
        <mxCell id="UBRUYtKY9HVl9Kvyujsa-4" value="项目交付" style="whiteSpace=wrap;strokeWidth=2;" vertex="1" parent="1">
          <mxGeometry x="76" y="1158" width="80" height="34" as="geometry" />
        </mxCell>
        <mxCell id="UBRUYtKY9HVl9Kvyujsa-5" value="项目运营" style="whiteSpace=wrap;strokeWidth=2;" vertex="1" parent="1">
          <mxGeometry x="76" y="1242" width="80" height="34" as="geometry" />
        </mxCell>
        <mxCell id="UBRUYtKY9HVl9Kvyujsa-6" value="前期准备" style="whiteSpace=wrap;strokeWidth=2;verticalAlign=top;" vertex="1" parent="1">
          <mxGeometry x="24" y="663" width="183" height="252" as="geometry" />
        </mxCell>
        <mxCell id="UBRUYtKY9HVl9Kvyujsa-7" value="融资安排" style="whiteSpace=wrap;strokeWidth=2;" vertex="1" parent="1">
          <mxGeometry x="76" y="688" width="80" height="34" as="geometry" />
        </mxCell>
        <mxCell id="UBRUYtKY9HVl9Kvyujsa-8" value="开展尽职调查" style="whiteSpace=wrap;strokeWidth=2;" vertex="1" parent="1">
          <mxGeometry x="59" y="772" width="113" height="34" as="geometry" />
        </mxCell>
        <mxCell id="UBRUYtKY9HVl9Kvyujsa-9" value="完成合同签署" style="whiteSpace=wrap;strokeWidth=2;" vertex="1" parent="1">
          <mxGeometry x="60" y="856" width="112" height="34" as="geometry" />
        </mxCell>
        <mxCell id="UBRUYtKY9HVl9Kvyujsa-10" value="集团审批" style="whiteSpace=wrap;strokeWidth=2;verticalAlign=top;" vertex="1" parent="1">
          <mxGeometry x="20" y="20" width="396" height="593" as="geometry" />
        </mxCell>
        <mxCell id="UBRUYtKY9HVl9Kvyujsa-11" value="审查项目可行性" style="whiteSpace=wrap;strokeWidth=2;" vertex="1" parent="1">
          <mxGeometry x="145" y="199" width="128" height="34" as="geometry" />
        </mxCell>
        <mxCell id="UBRUYtKY9HVl9Kvyujsa-12" value="集团审批申请" style="whiteSpace=wrap;strokeWidth=2;" vertex="1" parent="1">
          <mxGeometry x="152" y="80" width="113" height="34" as="geometry" />
        </mxCell>
        <mxCell id="UBRUYtKY9HVl9Kvyujsa-13" value="审查项目风险" style="whiteSpace=wrap;strokeWidth=2;" vertex="1" parent="1">
          <mxGeometry x="153" y="283" width="112" height="34" as="geometry" />
        </mxCell>
        <mxCell id="UBRUYtKY9HVl9Kvyujsa-14" value="决策委员会审议" style="whiteSpace=wrap;strokeWidth=2;" vertex="1" parent="1">
          <mxGeometry x="144" y="367" width="129" height="34" as="geometry" />
        </mxCell>
        <mxCell id="UBRUYtKY9HVl9Kvyujsa-15" value="审批通过与否" style="whiteSpace=wrap;strokeWidth=2;" vertex="1" parent="1">
          <mxGeometry x="153" y="451" width="112" height="34" as="geometry" />
        </mxCell>
        <mxCell id="UBRUYtKY9HVl9Kvyujsa-16" value="签订投资协议" style="whiteSpace=wrap;strokeWidth=2;" vertex="1" parent="1">
          <mxGeometry x="59" y="554" width="113" height="34" as="geometry" />
        </mxCell>
        <mxCell id="UBRUYtKY9HVl9Kvyujsa-17" value="重新评估或终止项目" style="whiteSpace=wrap;strokeWidth=2;" vertex="1" parent="1">
          <mxGeometry x="222" y="554" width="159" height="34" as="geometry" />
        </mxCell>
        <mxCell id="UBRUYtKY9HVl9Kvyujsa-18" value="发起立项" style="whiteSpace=wrap;strokeWidth=2;verticalAlign=top;" vertex="1" parent="1">
          <mxGeometry x="451" y="45" width="1296" height="104" as="geometry" />
        </mxCell>
        <mxCell id="UBRUYtKY9HVl9Kvyujsa-19" value="确定项目目标" style="whiteSpace=wrap;strokeWidth=2;" vertex="1" parent="UBRUYtKY9HVl9Kvyujsa-18">
          <mxGeometry x="195" y="43" width="113" height="34" as="geometry" />
        </mxCell>
        <mxCell id="UBRUYtKY9HVl9Kvyujsa-20" value="制定项目计划" style="whiteSpace=wrap;strokeWidth=2;" vertex="1" parent="UBRUYtKY9HVl9Kvyujsa-18">
          <mxGeometry x="33" y="43" width="112" height="34" as="geometry" />
        </mxCell>
        <mxCell id="UBRUYtKY9HVl9Kvyujsa-21" value="编制项目预算" style="whiteSpace=wrap;strokeWidth=2;" vertex="1" parent="UBRUYtKY9HVl9Kvyujsa-18">
          <mxGeometry x="358" y="43" width="113" height="34" as="geometry" />
        </mxCell>
        <mxCell id="UBRUYtKY9HVl9Kvyujsa-22" value="编制投资方案" style="whiteSpace=wrap;strokeWidth=2;" vertex="1" parent="UBRUYtKY9HVl9Kvyujsa-18">
          <mxGeometry x="521" y="43" width="113" height="34" as="geometry" />
        </mxCell>
        <mxCell id="UBRUYtKY9HVl9Kvyujsa-23" value="编制项目合同" style="whiteSpace=wrap;strokeWidth=2;" vertex="1" parent="UBRUYtKY9HVl9Kvyujsa-18">
          <mxGeometry x="684" y="43" width="112" height="34" as="geometry" />
        </mxCell>
        <mxCell id="UBRUYtKY9HVl9Kvyujsa-24" value="准备项目立项报告" style="whiteSpace=wrap;strokeWidth=2;" vertex="1" parent="UBRUYtKY9HVl9Kvyujsa-18">
          <mxGeometry x="846" y="43" width="143" height="34" as="geometry" />
        </mxCell>
        <mxCell id="UBRUYtKY9HVl9Kvyujsa-25" value="内部评审" style="whiteSpace=wrap;strokeWidth=2;" vertex="1" parent="UBRUYtKY9HVl9Kvyujsa-18">
          <mxGeometry x="1039" y="43" width="79" height="34" as="geometry" />
        </mxCell>
        <mxCell id="UBRUYtKY9HVl9Kvyujsa-26" value="审批项目立项" style="whiteSpace=wrap;strokeWidth=2;" vertex="1" parent="UBRUYtKY9HVl9Kvyujsa-18">
          <mxGeometry x="1168" y="43" width="111" height="34" as="geometry" />
        </mxCell>
        <mxCell id="UBRUYtKY9HVl9Kvyujsa-27" value="" style="curved=1;startArrow=none;endArrow=block;exitX=1;exitY=0.5;entryX=0;entryY=0.5;rounded=0;" edge="1" parent="UBRUYtKY9HVl9Kvyujsa-18" source="UBRUYtKY9HVl9Kvyujsa-20" target="UBRUYtKY9HVl9Kvyujsa-19">
          <mxGeometry relative="1" as="geometry">
            <Array as="points" />
          </mxGeometry>
        </mxCell>
        <mxCell id="UBRUYtKY9HVl9Kvyujsa-28" value="" style="curved=1;startArrow=none;endArrow=block;exitX=1;exitY=0.5;entryX=0;entryY=0.5;rounded=0;" edge="1" parent="UBRUYtKY9HVl9Kvyujsa-18" source="UBRUYtKY9HVl9Kvyujsa-19" target="UBRUYtKY9HVl9Kvyujsa-21">
          <mxGeometry relative="1" as="geometry">
            <Array as="points" />
          </mxGeometry>
        </mxCell>
        <mxCell id="UBRUYtKY9HVl9Kvyujsa-29" value="" style="curved=1;startArrow=none;endArrow=block;exitX=1;exitY=0.5;entryX=0;entryY=0.5;rounded=0;" edge="1" parent="UBRUYtKY9HVl9Kvyujsa-18" source="UBRUYtKY9HVl9Kvyujsa-21" target="UBRUYtKY9HVl9Kvyujsa-22">
          <mxGeometry relative="1" as="geometry">
            <Array as="points" />
          </mxGeometry>
        </mxCell>
        <mxCell id="UBRUYtKY9HVl9Kvyujsa-30" value="" style="curved=1;startArrow=none;endArrow=block;exitX=1;exitY=0.5;entryX=0;entryY=0.5;rounded=0;" edge="1" parent="UBRUYtKY9HVl9Kvyujsa-18" source="UBRUYtKY9HVl9Kvyujsa-22" target="UBRUYtKY9HVl9Kvyujsa-23">
          <mxGeometry relative="1" as="geometry">
            <Array as="points" />
          </mxGeometry>
        </mxCell>
        <mxCell id="UBRUYtKY9HVl9Kvyujsa-31" value="" style="curved=1;startArrow=none;endArrow=block;exitX=1;exitY=0.5;entryX=0;entryY=0.5;rounded=0;" edge="1" parent="UBRUYtKY9HVl9Kvyujsa-18" source="UBRUYtKY9HVl9Kvyujsa-23" target="UBRUYtKY9HVl9Kvyujsa-24">
          <mxGeometry relative="1" as="geometry">
            <Array as="points" />
          </mxGeometry>
        </mxCell>
        <mxCell id="UBRUYtKY9HVl9Kvyujsa-32" value="" style="curved=1;startArrow=none;endArrow=block;exitX=1;exitY=0.5;entryX=0;entryY=0.5;rounded=0;" edge="1" parent="UBRUYtKY9HVl9Kvyujsa-18" source="UBRUYtKY9HVl9Kvyujsa-24" target="UBRUYtKY9HVl9Kvyujsa-25">
          <mxGeometry relative="1" as="geometry">
            <Array as="points" />
          </mxGeometry>
        </mxCell>
        <mxCell id="UBRUYtKY9HVl9Kvyujsa-33" value="" style="curved=1;startArrow=none;endArrow=block;exitX=1;exitY=0.5;entryX=0;entryY=0.5;rounded=0;" edge="1" parent="UBRUYtKY9HVl9Kvyujsa-18" source="UBRUYtKY9HVl9Kvyujsa-25" target="UBRUYtKY9HVl9Kvyujsa-26">
          <mxGeometry relative="1" as="geometry">
            <Array as="points" />
          </mxGeometry>
        </mxCell>
        <mxCell id="UBRUYtKY9HVl9Kvyujsa-34" value="项目踏勘" style="whiteSpace=wrap;strokeWidth=2;verticalAlign=top;" vertex="1" parent="1">
          <mxGeometry x="1797" y="45" width="1316" height="104" as="geometry" />
        </mxCell>
        <mxCell id="UBRUYtKY9HVl9Kvyujsa-35" value="市场调研" style="whiteSpace=wrap;strokeWidth=2;" vertex="1" parent="UBRUYtKY9HVl9Kvyujsa-34">
          <mxGeometry x="196" y="43" width="79" height="34" as="geometry" />
        </mxCell>
        <mxCell id="UBRUYtKY9HVl9Kvyujsa-36" value="确定投资战略" style="whiteSpace=wrap;strokeWidth=2;" vertex="1" parent="UBRUYtKY9HVl9Kvyujsa-34">
          <mxGeometry x="33" y="43" width="113" height="34" as="geometry" />
        </mxCell>
        <mxCell id="UBRUYtKY9HVl9Kvyujsa-37" value="选定目标城市" style="whiteSpace=wrap;strokeWidth=2;" vertex="1" parent="UBRUYtKY9HVl9Kvyujsa-34">
          <mxGeometry x="325" y="43" width="112" height="34" as="geometry" />
        </mxCell>
        <mxCell id="UBRUYtKY9HVl9Kvyujsa-38" value="分析城市发展潜力" style="whiteSpace=wrap;strokeWidth=2;" vertex="1" parent="UBRUYtKY9HVl9Kvyujsa-34">
          <mxGeometry x="487" y="43" width="144" height="34" as="geometry" />
        </mxCell>
        <mxCell id="UBRUYtKY9HVl9Kvyujsa-39" value="确定投资地段" style="whiteSpace=wrap;strokeWidth=2;" vertex="1" parent="UBRUYtKY9HVl9Kvyujsa-34">
          <mxGeometry x="681" y="43" width="113" height="34" as="geometry" />
        </mxCell>
        <mxCell id="UBRUYtKY9HVl9Kvyujsa-40" value="调查项目用地" style="whiteSpace=wrap;strokeWidth=2;" vertex="1" parent="UBRUYtKY9HVl9Kvyujsa-34">
          <mxGeometry x="844" y="43" width="113" height="34" as="geometry" />
        </mxCell>
        <mxCell id="UBRUYtKY9HVl9Kvyujsa-41" value="评估用地可行性" style="whiteSpace=wrap;strokeWidth=2;" vertex="1" parent="UBRUYtKY9HVl9Kvyujsa-34">
          <mxGeometry x="1007" y="43" width="129" height="34" as="geometry" />
        </mxCell>
        <mxCell id="UBRUYtKY9HVl9Kvyujsa-42" value="评估项目风险" style="whiteSpace=wrap;strokeWidth=2;" vertex="1" parent="UBRUYtKY9HVl9Kvyujsa-34">
          <mxGeometry x="1186" y="43" width="113" height="34" as="geometry" />
        </mxCell>
        <mxCell id="UBRUYtKY9HVl9Kvyujsa-43" value="" style="curved=1;startArrow=none;endArrow=block;exitX=1;exitY=0.5;entryX=0;entryY=0.5;rounded=0;" edge="1" parent="UBRUYtKY9HVl9Kvyujsa-34" source="UBRUYtKY9HVl9Kvyujsa-36" target="UBRUYtKY9HVl9Kvyujsa-35">
          <mxGeometry relative="1" as="geometry">
            <Array as="points" />
          </mxGeometry>
        </mxCell>
        <mxCell id="UBRUYtKY9HVl9Kvyujsa-44" value="" style="curved=1;startArrow=none;endArrow=block;exitX=1;exitY=0.5;entryX=0;entryY=0.5;rounded=0;" edge="1" parent="UBRUYtKY9HVl9Kvyujsa-34" source="UBRUYtKY9HVl9Kvyujsa-35" target="UBRUYtKY9HVl9Kvyujsa-37">
          <mxGeometry relative="1" as="geometry">
            <Array as="points" />
          </mxGeometry>
        </mxCell>
        <mxCell id="UBRUYtKY9HVl9Kvyujsa-45" value="" style="curved=1;startArrow=none;endArrow=block;exitX=1;exitY=0.5;entryX=0;entryY=0.5;rounded=0;" edge="1" parent="UBRUYtKY9HVl9Kvyujsa-34" source="UBRUYtKY9HVl9Kvyujsa-37" target="UBRUYtKY9HVl9Kvyujsa-38">
          <mxGeometry relative="1" as="geometry">
            <Array as="points" />
          </mxGeometry>
        </mxCell>
        <mxCell id="UBRUYtKY9HVl9Kvyujsa-46" value="" style="curved=1;startArrow=none;endArrow=block;exitX=1;exitY=0.5;entryX=0;entryY=0.5;rounded=0;" edge="1" parent="UBRUYtKY9HVl9Kvyujsa-34" source="UBRUYtKY9HVl9Kvyujsa-38" target="UBRUYtKY9HVl9Kvyujsa-39">
          <mxGeometry relative="1" as="geometry">
            <Array as="points" />
          </mxGeometry>
        </mxCell>
        <mxCell id="UBRUYtKY9HVl9Kvyujsa-47" value="" style="curved=1;startArrow=none;endArrow=block;exitX=1;exitY=0.5;entryX=0;entryY=0.5;rounded=0;" edge="1" parent="UBRUYtKY9HVl9Kvyujsa-34" source="UBRUYtKY9HVl9Kvyujsa-39" target="UBRUYtKY9HVl9Kvyujsa-40">
          <mxGeometry relative="1" as="geometry">
            <Array as="points" />
          </mxGeometry>
        </mxCell>
        <mxCell id="UBRUYtKY9HVl9Kvyujsa-48" value="" style="curved=1;startArrow=none;endArrow=block;exitX=1;exitY=0.5;entryX=0;entryY=0.5;rounded=0;" edge="1" parent="UBRUYtKY9HVl9Kvyujsa-34" source="UBRUYtKY9HVl9Kvyujsa-40" target="UBRUYtKY9HVl9Kvyujsa-41">
          <mxGeometry relative="1" as="geometry">
            <Array as="points" />
          </mxGeometry>
        </mxCell>
        <mxCell id="UBRUYtKY9HVl9Kvyujsa-49" value="" style="curved=1;startArrow=none;endArrow=block;exitX=1;exitY=0.5;entryX=0;entryY=0.5;rounded=0;" edge="1" parent="UBRUYtKY9HVl9Kvyujsa-34" source="UBRUYtKY9HVl9Kvyujsa-41" target="UBRUYtKY9HVl9Kvyujsa-42">
          <mxGeometry relative="1" as="geometry">
            <Array as="points" />
          </mxGeometry>
        </mxCell>
        <mxCell id="UBRUYtKY9HVl9Kvyujsa-50" value="" style="curved=1;startArrow=none;endArrow=block;exitX=0.5;exitY=1;entryX=0.49609375;entryY=0;rounded=0;" edge="1" parent="1" source="UBRUYtKY9HVl9Kvyujsa-12" target="UBRUYtKY9HVl9Kvyujsa-11">
          <mxGeometry relative="1" as="geometry">
            <Array as="points" />
          </mxGeometry>
        </mxCell>
        <mxCell id="UBRUYtKY9HVl9Kvyujsa-51" value="" style="curved=1;startArrow=none;endArrow=block;exitX=0.49609375;exitY=1;entryX=0.4955357142857143;entryY=0;rounded=0;" edge="1" parent="1" source="UBRUYtKY9HVl9Kvyujsa-11" target="UBRUYtKY9HVl9Kvyujsa-13">
          <mxGeometry relative="1" as="geometry">
            <Array as="points" />
          </mxGeometry>
        </mxCell>
        <mxCell id="UBRUYtKY9HVl9Kvyujsa-52" value="" style="curved=1;startArrow=none;endArrow=block;exitX=0.4955357142857143;exitY=1;entryX=0.5;entryY=0;rounded=0;" edge="1" parent="1" source="UBRUYtKY9HVl9Kvyujsa-13" target="UBRUYtKY9HVl9Kvyujsa-14">
          <mxGeometry relative="1" as="geometry">
            <Array as="points" />
          </mxGeometry>
        </mxCell>
        <mxCell id="UBRUYtKY9HVl9Kvyujsa-53" value="" style="curved=1;startArrow=none;endArrow=block;exitX=0.5;exitY=1;entryX=0.4955357142857143;entryY=0;rounded=0;" edge="1" parent="1" source="UBRUYtKY9HVl9Kvyujsa-14" target="UBRUYtKY9HVl9Kvyujsa-15">
          <mxGeometry relative="1" as="geometry">
            <Array as="points" />
          </mxGeometry>
        </mxCell>
        <mxCell id="UBRUYtKY9HVl9Kvyujsa-54" value="通过" style="curved=1;startArrow=none;endArrow=block;exitX=0.22143723994452152;exitY=1;entryX=0.5;entryY=0;rounded=0;" edge="1" parent="1" source="UBRUYtKY9HVl9Kvyujsa-15" target="UBRUYtKY9HVl9Kvyujsa-16">
          <mxGeometry relative="1" as="geometry">
            <Array as="points">
              <mxPoint x="116" y="520" />
            </Array>
          </mxGeometry>
        </mxCell>
        <mxCell id="UBRUYtKY9HVl9Kvyujsa-55" value="未通过" style="curved=1;startArrow=none;endArrow=block;exitX=0.769634188626907;exitY=1;entryX=0.5;entryY=0;rounded=0;" edge="1" parent="1" source="UBRUYtKY9HVl9Kvyujsa-15" target="UBRUYtKY9HVl9Kvyujsa-17">
          <mxGeometry relative="1" as="geometry">
            <Array as="points">
              <mxPoint x="302" y="520" />
            </Array>
          </mxGeometry>
        </mxCell>
        <mxCell id="UBRUYtKY9HVl9Kvyujsa-56" value="" style="curved=1;startArrow=none;endArrow=block;exitX=0.5;exitY=1;entryX=0.49375;entryY=0;rounded=0;" edge="1" parent="1" source="UBRUYtKY9HVl9Kvyujsa-16" target="UBRUYtKY9HVl9Kvyujsa-7">
          <mxGeometry relative="1" as="geometry">
            <Array as="points" />
          </mxGeometry>
        </mxCell>
        <mxCell id="UBRUYtKY9HVl9Kvyujsa-57" value="" style="curved=1;startArrow=none;endArrow=block;exitX=0.49375;exitY=1;entryX=0.5;entryY=0;rounded=0;" edge="1" parent="1" source="UBRUYtKY9HVl9Kvyujsa-7" target="UBRUYtKY9HVl9Kvyujsa-8">
          <mxGeometry relative="1" as="geometry">
            <Array as="points" />
          </mxGeometry>
        </mxCell>
        <mxCell id="UBRUYtKY9HVl9Kvyujsa-58" value="" style="curved=1;startArrow=none;endArrow=block;exitX=0.5;exitY=1;entryX=0.4955357142857143;entryY=0;rounded=0;" edge="1" parent="1" source="UBRUYtKY9HVl9Kvyujsa-8" target="UBRUYtKY9HVl9Kvyujsa-9">
          <mxGeometry relative="1" as="geometry">
            <Array as="points" />
          </mxGeometry>
        </mxCell>
        <mxCell id="UBRUYtKY9HVl9Kvyujsa-59" value="" style="curved=1;startArrow=none;endArrow=block;exitX=0.4955357142857143;exitY=1;entryX=0.5;entryY=0;rounded=0;" edge="1" parent="1" source="UBRUYtKY9HVl9Kvyujsa-9" target="UBRUYtKY9HVl9Kvyujsa-2">
          <mxGeometry relative="1" as="geometry">
            <Array as="points" />
          </mxGeometry>
        </mxCell>
        <mxCell id="UBRUYtKY9HVl9Kvyujsa-60" value="" style="curved=1;startArrow=none;endArrow=block;exitX=0.5;exitY=1;entryX=0.49375;entryY=0;rounded=0;" edge="1" parent="1" source="UBRUYtKY9HVl9Kvyujsa-2" target="UBRUYtKY9HVl9Kvyujsa-3">
          <mxGeometry relative="1" as="geometry">
            <Array as="points" />
          </mxGeometry>
        </mxCell>
        <mxCell id="UBRUYtKY9HVl9Kvyujsa-61" value="" style="curved=1;startArrow=none;endArrow=block;exitX=0.49375;exitY=1;entryX=0.49375;entryY=0;rounded=0;" edge="1" parent="1" source="UBRUYtKY9HVl9Kvyujsa-3" target="UBRUYtKY9HVl9Kvyujsa-4">
          <mxGeometry relative="1" as="geometry">
            <Array as="points" />
          </mxGeometry>
        </mxCell>
        <mxCell id="UBRUYtKY9HVl9Kvyujsa-62" value="" style="curved=1;startArrow=none;endArrow=block;exitX=0.49375;exitY=1;entryX=0.49375;entryY=0;rounded=0;" edge="1" parent="1" source="UBRUYtKY9HVl9Kvyujsa-4" target="UBRUYtKY9HVl9Kvyujsa-5">
          <mxGeometry relative="1" as="geometry">
            <Array as="points" />
          </mxGeometry>
        </mxCell>
      </root>
    </mxGraphModel>
  </diagram>
</mxfile>
